<svg width="36" height="36" viewBox="0 0 36 36" fill="none" xmlns="http://www.w3.org/2000/svg">
<path d="M18 35.9823C27.8471 35.9823 36 27.8157 36 17.9912C36 8.14893 27.8294 0 17.9823 0C8.15293 0 0 8.14893 0 17.9912C0 27.8157 8.17058 35.9823 18 35.9823ZM18 32.9838C9.67058 32.9838 3.01765 26.3165 3.01765 17.9912C3.01765 9.66584 9.65293 2.99852 17.9823 2.99852C26.3118 2.99852 33 9.66584 33 17.9912C33 26.3165 26.3294 32.9838 18 32.9838Z" fill="black" fill-opacity="0.85"/>
<path d="M15 23.9706H24.6176C25.1647 23.9706 25.5177 23.6001 25.5177 23.0357C25.5177 22.4889 25.1647 22.1009 24.6176 22.1009H15.0353C14.5059 22.1009 14.153 21.8011 14.0823 21.2542L14.0117 20.584H25.0235C26.347 20.584 27 19.7903 27.1941 18.5027L27.9 13.705C27.9353 13.6168 27.953 13.4581 27.953 13.3875C27.953 12.9465 27.6352 12.6644 27.1235 12.6644H12.8471L12.6883 11.465C12.5823 10.7065 11.9647 10.2126 11.153 10.2126H8.15293C7.60588 10.2126 7.23529 10.5831 7.23529 11.1475C7.23529 11.6943 7.60588 12.0646 8.15293 12.0646H10.9059L12.3 21.8186C12.4941 23.2298 13.4118 23.9706 15 23.9706ZM15.2824 28.292C16.1823 28.292 16.8706 27.5865 16.8706 26.7222C16.8706 25.8226 16.1823 25.117 15.2824 25.117C14.4176 25.117 13.7118 25.8226 13.7118 26.7222C13.7118 27.5865 14.4176 28.292 15.2824 28.292ZM23.1883 28.292C24.0706 28.292 24.7765 27.5865 24.7765 26.7222C24.7765 25.8226 24.0706 25.117 23.1883 25.117C22.3059 25.117 21.5823 25.8226 21.5823 26.7222C21.5823 27.5865 22.3059 28.292 23.1883 28.292Z" fill="black" fill-opacity="0.85"/>
</svg>
