<svg width="41" height="38" viewBox="0 0 41 38" fill="none" xmlns="http://www.w3.org/2000/svg">
<g clip-path="url(#clip0_12_119)">
<path d="M14.291 28.4941H34.8047C35.4902 28.4941 36.0879 27.9316 36.0879 27.1758C36.0879 26.4199 35.4902 25.8574 34.8047 25.8574H14.5898C13.5879 25.8574 12.9727 25.1543 12.8145 24.082L9.93164 4.51758C9.75586 3.16406 9.26367 2.47852 7.4707 2.47852H1.30078C0.597656 2.47852 0 3.09375 0 3.79688C0 4.51758 0.597656 5.13281 1.30078 5.13281H7.24219L10.0547 24.4336C10.4238 26.9297 11.7422 28.4941 14.291 28.4941ZM11.0566 22.2363H34.8398C37.4062 22.2363 38.7246 20.6543 39.0938 18.1406L40.5 8.8418C40.5352 8.61328 40.5703 8.33203 40.5703 8.17383C40.5703 7.33008 39.9375 6.75 38.9707 6.75H9.52734L9.54492 9.4043H37.582L36.334 17.8242C36.1934 18.9141 35.6133 19.5996 34.5762 19.5996H11.0215L11.0566 22.2363ZM15.6797 37.0371C17.2617 37.0371 18.5273 35.7891 18.5273 34.1895C18.5273 32.6074 17.2617 31.3418 15.6797 31.3418C14.0801 31.3418 12.8145 32.6074 12.8145 34.1895C12.8145 35.7891 14.0801 37.0371 15.6797 37.0371ZM32.1152 37.0371C33.7148 37.0371 34.9805 35.7891 34.9805 34.1895C34.9805 32.6074 33.7148 31.3418 32.1152 31.3418C30.5332 31.3418 29.25 32.6074 29.25 34.1895C29.25 35.7891 30.5332 37.0371 32.1152 37.0371Z" fill="#155343"/>
</g>
<defs>
<clipPath id="clip0_12_119">
<rect width="40.5703" height="37.0371" fill="white"/>
</clipPath>
</defs>
</svg>
