<svg width="28" height="28" viewBox="0 0 28 28" fill="none" xmlns="http://www.w3.org/2000/svg">
<g clip-path="url(#clip0_12_108)">
<path d="M0.454858 27.4373C1.07009 28.0349 2.08962 28.0349 2.68728 27.4373L13.9373 16.1873L25.1873 27.4373C25.7849 28.0349 26.822 28.0525 27.4197 27.4373C28.0174 26.822 28.0174 25.8201 27.4197 25.2224L16.1697 13.9549L27.4197 2.70486C28.0174 2.1072 28.0349 1.08767 27.4197 0.490013C26.8045 -0.125221 25.7849 -0.125221 25.1873 0.490013L13.9373 11.74L2.68728 0.490013C2.08962 -0.125221 1.05251 -0.142799 0.454858 0.490013C-0.142798 1.10525 -0.142798 2.1072 0.454858 2.70486L11.7049 13.9549L0.454858 25.2224C-0.142798 25.8201 -0.160377 26.8396 0.454858 27.4373Z" fill="#155343"/>
</g>
<defs>
<clipPath id="clip0_12_108">
<rect width="27.8746" height="27.8921" fill="white"/>
</clipPath>
</defs>
</svg>
