<svg width="187" height="238" viewBox="0 0 187 238" fill="none" xmlns="http://www.w3.org/2000/svg">
<path d="M123.924 188.176C119.37 180.906 115.809 175.33 115.502 171.747C115.339 169.857 115.323 168.074 115.456 166.435C113.718 161.206 115.199 155.172 116.125 152.3C116.176 151.323 116.263 148.694 116.344 146.141C116.814 131.681 116.785 127.554 117.142 126.399C117.668 124.217 119.278 123.056 120.296 122.387C120.505 119.458 122.349 118.264 123.52 117.78C123.456 117.147 123.415 116.496 123.408 115.824C123.372 112.143 123.911 107.619 124.888 103.413C125.982 98.6832 128.595 97.2045 130.156 96.3218C131.072 95.8032 131.072 95.8032 131.262 95.2058C132.544 91.1592 135.835 86.0578 139.023 81.8539C139.116 74.7272 138.1 68.7192 136.786 62.1859C136.028 58.4138 137.704 40.1938 136.507 36.8205C135.123 32.9232 134.519 28.5525 133.258 24.6219C131.084 17.8525 126.706 16.3365 124.827 8.85385C123.681 4.28584 122.613 4.63786 121.042 1.86853C120.192 0.369858 117.28 0.457855 116.336 1.75252C116.046 2.14984 115.751 3.43784 115.599 4.04184C115.085 6.08717 108.88 2.20184 107.848 4.31784C107.473 5.08852 106.603 6.08185 106.22 6.84584C105.844 7.59651 105.765 8.57384 105.958 9.43784C104.692 12.1805 105.352 14.1459 104.672 17.7685C103.786 22.4899 107.989 29.8925 102.788 30.2538C97.5337 30.6205 97.5247 44.1592 97.1659 54.8205C97.7211 56.3672 97.9805 57.8232 97.9518 61.2299C97.9263 64.0805 98.1482 66.4592 98.3602 68.7565C98.6029 71.3698 98.8529 74.0739 98.743 77.3592C98.6409 80.4512 99.1003 81.5579 99.7941 83.2325C100.251 84.3365 100.768 85.5925 101.185 87.3778C102.088 87.7192 103.208 88.5312 103.58 90.4592C104.045 92.0472 104.356 95.4672 104.987 106.97C105.109 109.165 105.244 111.629 105.318 112.422C106.604 116.651 108.969 126.458 106.26 134.493C106.497 137.153 106.492 140.094 106.247 143.25C105.313 155.258 103.963 162.269 101.871 165.982C101.584 166.494 101.272 166.907 100.964 167.338C100.987 168.063 101.026 168.824 101.116 169.687C101.796 176.179 103.915 191.785 105.81 197.006C106.348 198.49 107.327 199.421 108.272 199.148C110.122 201.642 111.337 202.254 112.477 204.41C113.34 206.042 113.223 209.814 113.856 214.742C114.253 217.831 112.921 221.323 112.921 221.323H119.599C119.599 221.323 118.364 216.086 118.413 212.299C118.458 208.874 118.954 204.885 118.798 201.119C118.811 201.099 118.821 201.075 118.833 201.055C120.433 198.46 122.186 196.262 123.643 193.363C124.134 192.386 124.636 191.227 125.118 190C124.924 189.742 124.732 189.472 124.55 189.174L123.924 188.176Z" fill="#155343"/>
<path d="M36.8023 190.87C36.7982 190.863 32.0643 189.258 29.8414 185.636C28.5389 183.514 27.5498 180.785 26.1294 178.975C27.8222 179.524 30.9441 177.685 32.2909 179.288C33.7737 181.055 34.1107 184.182 36.8023 183.026C36.8925 187.07 36.9373 187.309 36.8023 190.87ZM53.8643 177.239C53.1742 174.895 52.6279 173.045 50.7946 170.281C50.2758 169.498 49.7227 168.793 49.1737 168.086C48.3841 167.074 47.5674 166.023 46.7753 164.734C43.0794 158.721 40.7607 152.248 39.8883 145.494C39.3941 141.658 39.4518 137.822 39.5102 134.115C39.5493 131.522 39.5883 129.074 39.4498 126.642C39.3763 125.331 39.2471 124.083 39.1227 122.847C38.8815 120.494 38.6351 118.065 38.7258 115.307C38.9498 108.462 40.7539 100.009 42.2045 93.2192C42.5133 91.7632 42.8091 90.3885 43.0649 89.1285C44.1425 83.8298 43.957 78.3885 43.7622 72.6258C43.5935 67.6578 43.4185 62.5192 44.0935 57.3258C44.431 54.7272 44.6018 51.4232 45.155 49.4925C43.8263 47.8405 43.7107 47.5112 42.6195 46.3325C39.4607 42.9205 32.4498 44.3712 29.7862 48.1645C28.1534 50.4898 18.1321 54.4378 17.5045 57.2445C15.7367 60.0365 13.969 62.8365 13.0065 66.7152C12.4638 68.9018 12.1081 71.3125 11.9013 73.7925C11.0539 75.0525 10.1498 76.2712 9.16381 77.6525C6.79408 80.9738 12.8591 83.5552 12.0649 88.8072C10.8383 96.9152 13.0122 89.5992 11.1185 97.5992C9.86435 102.901 2.02476 101.962 0.376319 123.199C-1.19347 143.419 2.64352 145.338 2.83257 148.199C3.14247 152.888 2.27893 159.251 3.45705 163.751C6.04354 173.633 12.3346 171.407 14.8403 174.907C15.9403 176.445 19.3482 175.978 19.9206 177.765C24.7753 192.903 31.1935 193.134 32.1003 193.831C32.6846 194.186 33.2498 194.621 33.7643 195.276C33.9247 195.482 34.0561 195.71 34.1998 195.929C35.1607 197.206 35.6185 198.526 36.1425 200.89C36.1326 200.882 36.1294 200.879 36.1195 200.872C36.2482 201.539 36.3331 202.212 36.3961 202.89C36.6889 204.193 36.7758 205.59 36.6722 207C37.1638 208.298 37.5851 209.691 37.6695 210.236C37.8305 211.279 37.5955 217.76 37.5455 218.482C37.3138 221.795 37.4613 224.869 36.7695 225.788L43.3075 225.793C42.4367 223.871 42.8061 218.082 42.7545 213.774C42.7367 212.295 42.6575 210.041 42.6586 207.898C42.4029 205.41 42.9783 204.994 43.0362 203.148C43.0935 201.3 42.3149 198.955 42.7894 197.06C43.0471 194.497 43.3337 191.924 43.7367 189.448C44.0961 189.424 45.6007 189.23 47.5425 188.927C47.3659 189.307 47.1742 189.663 46.9946 190.039C49.0909 191.717 51.1867 191.69 53.2831 189.931C53.4727 189.803 53.6717 189.766 53.869 189.764C54.9919 188.823 55.3305 185.567 56.6966 184.317C56.4419 183.938 56.1607 183.585 55.9679 183.158C54.9127 180.799 54.3565 178.907 53.8643 177.239Z" fill="#2B9A40"/>
<path d="M86.5403 176.433C84.9034 180.826 83.1206 184.921 81.3841 189.13C81.3799 189.139 81.3774 189.148 81.3742 189.157C81.6837 185.158 82.0283 181.098 82.5357 177.224C83.7685 177.119 84.8242 174.641 85.9165 172.497C86.9081 170.55 88.0873 169.576 89.3337 168.909C88.2878 171.105 87.4993 173.857 86.5403 176.433ZM78.0133 187.094C77.6227 187.17 77.1742 186.983 76.9201 186.538C75.5722 184.182 74.1971 181.855 72.8217 179.527C72.793 179.478 72.7643 179.429 72.7346 179.379C72.1977 178.47 72.6565 176.743 73.6941 177.212C73.9003 177.306 74.0889 177.365 74.2654 177.394C75.4627 177.597 76.0097 176.402 76.7029 174.954C77.1174 174.087 78.3503 174.102 78.5039 175.265C78.9659 178.775 79.1731 182.321 79.1894 185.883C79.1941 186.833 78.5638 187.222 78.0133 187.094ZM73.1862 190.533C71.1165 188.643 69.855 188.102 68.0247 183.099L68.0643 182.95L68.5227 181.227C68.5227 181.227 69.0258 181.622 69.6597 182.179C70.3107 182.754 71.0998 183.499 71.6269 184.174C73.3617 186.391 73.9362 188.09 74.6367 192.017C73.7446 191.158 73.8898 191.174 73.1862 190.533ZM99.4602 113.378C99.2503 112.627 98.6419 93.6832 97.9555 91.9499C97.6523 89.2272 97.1138 98.0192 96.2607 95.4592C96.3622 94.8445 96.4263 94.2165 96.3971 93.5805C96.1258 87.6525 94.9029 86.1032 94.1742 83.5298C93.8045 82.2245 93.5597 80.6605 93.6351 78.1165C93.807 72.3525 92.8909 68.5885 92.9389 62.4099C92.9846 56.4952 92.1837 58.2018 91.1534 52.7538C91.1061 52.5005 91.0477 52.2898 90.995 52.0565C89.1883 43.9938 84.7857 47.1285 82.9867 40.1805C80.8269 31.8365 82.417 30.7192 77.7461 24.4472C74.4602 20.0365 70.2367 23.5352 67.4659 28.4405C65.7679 31.4458 64.6086 34.7232 63.9555 38.3525C62.117 41.9619 60.2789 31.2605 59.2774 36.2765C58.7127 39.1045 58.3425 36.4925 58.1274 39.6978C57.2461 41.3272 56.305 42.9045 55.2799 44.6898C54.2914 46.4112 53.4679 47.9872 52.7747 49.6859C52.0731 51.4019 51.5143 53.2765 51.0717 55.5552C50.8602 56.6432 50.667 57.7979 50.5075 59.1112C49.2315 69.5952 51.493 80.1845 49.5231 90.5298C48.2185 97.3832 45.8529 107.758 45.6143 115.532C45.4966 119.368 46.0779 122.592 46.2753 126.291C46.5977 132.353 45.931 138.521 46.6529 144.482C47.5117 151.571 49.8706 157.318 52.4774 161.846C53.6217 163.833 54.9299 165.29 56.1018 167.176C59.345 172.399 58.9034 175.036 61.1165 180.311C61.2289 180.579 61.3769 180.834 61.5435 181.081C62.5987 182.631 64.5898 183.719 65.7665 184.341C65.9706 184.448 66.1529 184.545 66.2982 184.623C67.3971 188.412 68.5107 190.588 69.5955 191.854C70.6586 193.093 71.9315 194.239 73.8826 196.673C74.7023 197.695 76.0622 202.794 76.2242 204.102C76.3925 205.45 76.1477 209.887 76.0955 210.821C75.8539 215.105 75.7903 217.269 75.0701 218.459L82.0898 217.967C81.1837 215.482 81.5674 210.303 81.5143 204.734C81.481 201.253 81.2237 201.793 81.6742 198.621C82.1503 195.274 86.9633 181.227 92.0414 167.721C92.7674 167.409 93.4883 167.038 94.1851 166.512C95.1143 165.81 96.0013 164.824 96.7914 163.254C97.4435 161.96 97.9763 160.069 98.4165 157.899C99.4149 152.979 99.9274 146.621 100.215 142.493C100.422 139.505 100.437 136.502 100.159 133.735C102.219 127.855 101.229 119.741 99.4602 113.378Z" fill="#BAE154"/>
<path d="M155.73 194.429C153.652 198.124 152.722 194.699 149.656 201.946C149.652 201.955 149.171 197.191 143.49 192.098C144.459 190.563 146.183 190.202 147.94 193.17C148.976 194.922 150.807 192.972 151.42 192.972C155.756 192.972 158.092 190.219 155.73 194.429ZM186.459 143.143C185.248 126.235 175.827 126.983 174.906 122.761C173.515 116.392 175.111 122.217 174.211 115.761C173.627 111.581 172.582 109.525 170.842 106.881C170.118 105.781 169.454 104.811 168.831 103.807C168.679 101.833 168.419 99.9138 168.02 98.1725C167.314 95.0832 166.015 92.8552 164.718 90.6325C164.258 88.3978 156.898 85.2539 155.699 83.4032C153.743 80.3832 148.595 79.2285 146.276 81.9445C145.711 82.6058 145.068 83.4138 144.404 84.2765C142.74 86.4365 140.883 89.0912 139.283 91.7685C137.788 94.2672 136.527 96.7578 135.918 98.8125C134.611 103.215 131.352 101.022 130.152 106.555C129.424 109.91 128.86 114.15 128.892 117.793C128.926 121.597 130.27 124.795 130.391 128.346C130.55 132.998 126.74 119.138 126.451 124.641C126.431 125.032 126.476 125.419 126.547 125.798C125.946 127.374 123.652 127.639 123.439 129.317C122.954 130.383 122.525 152.631 122.377 153.094C121.128 157.011 120.429 162.009 121.883 165.629C121.687 167.333 121.697 169.182 121.844 171.022C122.084 174.036 125.875 180.721 128.047 184.446C128.514 185.247 128.911 185.918 129.176 186.379C129.979 187.769 130.92 188.417 131.894 188.857C132.104 188.953 132.316 189.048 132.53 189.129C142.119 193.582 146.824 207.493 147.159 209.554C147.478 211.507 147.296 213.114 147.272 215.258C147.235 218.687 147.506 221.918 146.867 223.448L153.639 225.518C153.131 224.783 152.784 221.645 152.614 219.006C152.576 218.433 152.404 211.163 152.523 210.334C152.638 209.529 155.07 202.282 155.82 201.519C156.586 200.741 160.904 196.381 161.574 194.99C163.136 191.742 167.068 186.493 167.876 185.27C169.716 182.483 176.168 190.391 176.931 173.622C177.1 169.909 181.994 166.587 182.222 162.854C182.36 160.575 187.612 159.242 186.459 143.143Z" fill="#149EB0"/>
<path d="M167.68 230.541C162.259 226.475 129.127 217.194 95.0586 217.114V217.111C94.9862 217.111 94.6971 217.111 94.6242 217.111V217.114C60.555 217.194 27.4231 226.475 22.0029 230.541C19.2935 232.572 19.2513 238.257 19.9029 237.991C20.793 237.629 22.8383 236.497 26.1346 235.282C45.8717 228.006 72.469 224.079 94.8414 224.036C117.213 224.079 143.811 228.006 163.548 235.282C166.844 236.497 168.89 237.629 169.78 237.991C170.432 238.257 170.39 232.572 167.68 230.541Z" fill="#155343"/>
</svg>
