<svg width="20" height="20" viewBox="0 0 20 20" fill="none" xmlns="http://www.w3.org/2000/svg">
<g clip-path="url(#clip0_505_141)">
<path d="M9.68651 19.4907C14.9856 19.4907 19.373 15.1805 19.373 9.99534C19.373 4.80083 14.9761 0.5 9.677 0.5C4.38741 0.5 0 4.80083 0 9.99534C0 15.1805 4.39691 19.4907 9.68651 19.4907ZM9.68651 17.9081C5.20412 17.9081 1.62391 14.3893 1.62391 9.99534C1.62391 5.60141 5.19462 2.08255 9.677 2.08255C14.1594 2.08255 17.7586 5.60141 17.7586 9.99534C17.7586 14.3893 14.1689 17.9081 9.68651 17.9081Z" fill="black"/>
<path d="M5.95437 10.7866H13.4092C13.941 10.7866 14.3019 10.5073 14.3019 10.0139C14.3019 9.51123 13.9599 9.22266 13.4092 9.22266H5.95437C5.40358 9.22266 5.05219 9.51123 5.05219 10.0139C5.05219 10.5073 5.42255 10.7866 5.95437 10.7866Z" fill="black"/>
</g>
<defs>
<clipPath id="clip0_505_141">
<rect width="19.373" height="19" fill="white" transform="translate(0 0.5)"/>
</clipPath>
</defs>
</svg>
