<svg width="20" height="20" viewBox="0 0 20 20" fill="none" xmlns="http://www.w3.org/2000/svg">
<g clip-path="url(#clip0_505_147)">
<path d="M10.0596 19.4907C15.3586 19.4907 19.7461 15.1805 19.7461 9.99534C19.7461 4.80083 15.3491 0.5 10.05 0.5C4.76046 0.5 0.373047 4.80083 0.373047 9.99534C0.373047 15.1805 4.76996 19.4907 10.0596 19.4907ZM10.0596 17.9081C5.57717 17.9081 1.99696 14.3893 1.99696 9.99534C1.99696 5.60141 5.56767 2.08255 10.05 2.08255C14.5324 2.08255 18.1316 5.60141 18.1316 9.99534C18.1316 14.3893 14.5419 17.9081 10.0596 17.9081Z" fill="black"/>
<path d="M5.65314 9.99527C5.65314 10.4514 5.97602 10.7586 6.46036 10.7586H9.25231V13.5048C9.25231 13.9702 9.57522 14.2961 10.0405 14.2961C10.5154 14.2961 10.8478 13.9796 10.8478 13.5048V10.7586H13.6492C14.1241 10.7586 14.4565 10.4514 14.4565 9.99527C14.4565 9.52981 14.1241 9.20396 13.6492 9.20396H10.8478V6.4671C10.8478 5.99233 10.5154 5.6665 10.0405 5.6665C9.57522 5.6665 9.25231 5.99233 9.25231 6.4671V9.20396H6.46036C5.97602 9.20396 5.65314 9.52981 5.65314 9.99527Z" fill="black"/>
</g>
<defs>
<clipPath id="clip0_505_147">
<rect width="19.373" height="19" fill="white" transform="translate(0.373047 0.5)"/>
</clipPath>
</defs>
</svg>
