<svg width="36" height="36" viewBox="0 0 36 36" fill="none" xmlns="http://www.w3.org/2000/svg">
<g clip-path="url(#clip0_505_132)">
<path d="M17.9297 35.8594C27.7383 35.8594 35.8594 27.7207 35.8594 17.9297C35.8594 8.12109 27.7207 0 17.9121 0C8.12109 0 0 8.12109 0 17.9297C0 27.7207 8.13867 35.8594 17.9297 35.8594ZM17.9297 32.8711C9.63281 32.8711 3.00586 26.2266 3.00586 17.9297C3.00586 9.63281 9.61523 2.98828 17.9121 2.98828C26.209 2.98828 32.8711 9.63281 32.8711 17.9297C32.8711 26.2266 26.2266 32.8711 17.9297 32.8711Z" fill="#CD0100"/>
<path d="M13.377 28.2832H22.4648C23.6426 28.2832 24.3633 27.6152 24.416 26.4375L25.0137 12.5332H26.4023C26.8242 12.5332 27.1406 12.1992 27.1582 11.7949C27.1758 11.373 26.8242 11.0391 26.4023 11.0391H22.1836V9.61523C22.1836 8.15625 21.2168 7.24219 19.6699 7.24219H16.1191C14.5898 7.24219 13.6406 8.15625 13.6406 9.61523V11.0391H9.4043C9 11.0391 8.64844 11.373 8.64844 11.7949C8.64844 12.1992 9 12.5332 9.4043 12.5332H10.8457L11.4609 26.4375C11.4961 27.6152 12.1816 28.2832 13.377 28.2832ZM14.8887 25.5586C14.5371 25.5586 14.2559 25.3125 14.2559 24.9609L13.8867 14.6953C13.8867 14.3262 14.1152 14.0801 14.5371 14.0801C14.8887 14.0801 15.1699 14.3086 15.1699 14.6953L15.5039 24.9609C15.5039 25.3125 15.2754 25.5586 14.8887 25.5586ZM17.8945 25.5586C17.5078 25.5586 17.2441 25.3125 17.2441 24.9609V14.6953C17.2441 14.3262 17.4902 14.0801 17.8945 14.0801C18.2812 14.0801 18.5449 14.3262 18.5449 14.6953V24.9609C18.5449 25.3125 18.2812 25.5586 17.8945 25.5586ZM20.8828 25.5586C20.4961 25.5586 20.2676 25.3125 20.2676 24.9609L20.6016 14.6953C20.6191 14.3086 20.8828 14.0801 21.252 14.0801C21.6562 14.0801 21.8848 14.3262 21.8848 14.6953L21.5156 24.9609C21.5156 25.3125 21.2344 25.5586 20.8828 25.5586ZM15.416 11.0391V9.70312C15.416 9.24609 15.75 8.94727 16.2246 8.94727H19.5645C20.0391 8.94727 20.373 9.24609 20.373 9.70312V11.0391H15.416Z" fill="#CD0100"/>
</g>
<defs>
<clipPath id="clip0_505_132">
<rect width="35.8594" height="35.877" fill="white"/>
</clipPath>
</defs>
</svg>
